<?xml version="1.0" encoding="UTF-8" standalone="no"?>
<!-- Created with Inkscape (http://www.inkscape.org/) -->

<svg
   xmlns:dc="http://purl.org/dc/elements/1.1/"
   xmlns:cc="http://creativecommons.org/ns#"
   xmlns:rdf="http://www.w3.org/1999/02/22-rdf-syntax-ns#"
   xmlns:svg="http://www.w3.org/2000/svg"
   xmlns="http://www.w3.org/2000/svg"
   xmlns:sodipodi="http://sodipodi.sourceforge.net/DTD/sodipodi-0.dtd"
   xmlns:inkscape="http://www.inkscape.org/namespaces/inkscape"
   width="1048.8188"
   height="389.76376"
   id="svg3280"
   version="1.1"
   inkscape:version="0.48.4 r9939"
   sodipodi:docname="new mvcap logo.svg"
   inkscape:export-filename="C:\Users\woody_000\Google Drive\woody\Documents\MVCAP\Images\new mvcap logo.png"
   inkscape:export-xdpi="221.94"
   inkscape:export-ydpi="221.94">
  <defs
     id="defs3" />
  <sodipodi:namedview
     inkscape:document-units="mm"
     id="base"
     pagecolor="#ffffff"
     bordercolor="#666666"
     borderopacity="1.0"
     inkscape:pageopacity="0.0"
     inkscape:pageshadow="2"
     inkscape:zoom="0.41524866"
     inkscape:cx="531.52581"
     inkscape:cy="457.72921"
     inkscape:current-layer="layer1"
     showgrid="false"
     units="mm"
     height="110mm"
     inkscape:window-width="1366"
     inkscape:window-height="705"
     inkscape:window-x="-8"
     inkscape:window-y="-8"
     inkscape:window-maximized="1" />
  <metadata
     id="metadata4">
    <rdf:RDF>
      <cc:Work
         rdf:about="">
        <dc:format>image/svg+xml</dc:format>
        <dc:type
           rdf:resource="http://purl.org/dc/dcmitype/StillImage" />
        <dc:title></dc:title>
      </cc:Work>
    </rdf:RDF>
  </metadata>
  <g
     inkscape:label="Layer 1"
     inkscape:groupmode="layer"
     id="layer1"
     transform="translate(0,-662.59836)">
    <g
       id="g4105"
       transform="matrix(1.0155746,0,0,1.0396758,-4.5164679,338.91154)">
      <rect
         ry="0"
         y="322.69034"
         x="14.474237"
         height="246.91345"
         width="1016.6023"
         id="rect4054"
         style="fill:#225500;fill-opacity:1;stroke:#1e1f8d;stroke-width:5.83910608;stroke-linejoin:bevel;stroke-miterlimit:4;stroke-opacity:0.00584795;stroke-dasharray:none" />
      <g
         transform="matrix(1.6901441,0,0,1.7208801,-31.078723,-256.97439)"
         id="text4056"
         style="font-size:144px;font-style:normal;font-variant:normal;font-weight:bold;font-stretch:normal;text-align:start;line-height:125%;letter-spacing:0px;word-spacing:0px;writing-mode:lr-tb;text-anchor:start;fill:#ffffff;fill-opacity:1;stroke:none;font-family:Georgia;-inkscape-font-specification:Georgia Bold">
        <path
           style="fill:#ffffff;fill-opacity:1"
           inkscape:connector-curvature="0"
           id="path4061"
           d="m 184.53222,458.91846 -54.07031,0 0,-5.48438 c 1.59366,-0.14062 3.55069,-0.37499 5.87109,-0.70312 2.32022,-0.32812 3.90225,-0.67968 4.7461,-1.05469 1.73427,-0.70312 2.97646,-1.66405 3.72656,-2.88281 0.7499,-1.21874 1.1249,-2.76562 1.125,-4.64063 l 0,-74.53125 -34.3125,87.67969 -8.85937,0 c -0.42194,-1.54687 -1.46491,-4.61718 -3.128911,-9.21094 -1.664118,-4.59373 -3.011773,-8.27342 -4.042969,-11.03906 l -25.242187,-68.55469 0,60.67969 c -2.8e-5,5.81252 0.38669,10.23049 1.160156,13.25391 0.773408,3.02345 2.027313,5.23829 3.761719,6.64453 1.171841,0.98438 3.269495,1.92188 6.292968,2.8125 3.023396,0.89063 5.144488,1.40625 6.363282,1.54687 l 0,5.48438 -42.890625,0 0,-5.48438 c 1.171871,-0.14062 3.082025,-0.45702 5.730468,-0.94922 2.648427,-0.49218 4.816394,-1.34765 6.503907,-2.5664 1.874983,-1.31249 3.140607,-3.52733 3.796875,-6.64453 0.656231,-3.11717 0.984355,-7.55857 0.984375,-13.32422 l 0,-49.42969 c -2e-5,-2.99992 -0.375019,-5.49601 -1.125,-7.48828 -0.750018,-1.9921 -1.875017,-3.57413 -3.375,-4.7461 -1.875013,-1.45303 -3.796886,-2.39053 -5.765625,-2.8125 -1.968757,-0.42178 -3.960943,-0.70303 -5.976563,-0.84375 l 0,-5.48437 45.914063,0 24.609377,65.88281 20.74219,-53.50781 c 0.70303,-1.96866 1.38271,-4.31241 2.03906,-7.03125 0.65615,-2.71865 1.00771,-4.4999 1.05469,-5.34375 l 44.22656,0 0,5.48437 c -1.50014,0.0938 -3.07045,0.28135 -4.71094,0.5625 -1.64076,0.28135 -3.21107,0.65635 -4.71094,1.125 -1.82825,0.60947 -3.03528,1.57041 -3.62109,2.88282 -0.58607,1.31259 -0.87904,2.76571 -0.87891,4.35937 l 0,70.66406 c -1.3e-4,1.68752 0.29284,3.10548 0.87891,4.25391 0.58581,1.14845 1.79284,2.14454 3.62109,2.98828 0.93737,0.42188 2.47252,0.82032 4.60547,1.19531 2.13267,0.37501 3.78502,0.63282 4.95703,0.77344 z" />
        <path
           style="fill:#ffffff;fill-opacity:1"
           inkscape:connector-curvature="0"
           id="path4063"
           d="m 302.58691,364.77002 c -1.54699,0.14072 -3.02355,0.42197 -4.42969,0.84375 -1.40635,0.42197 -2.85948,1.07822 -4.35937,1.96875 -2.01573,1.17196 -3.57432,2.42587 -4.67578,3.76172 -1.10166,1.33602 -2.19151,3.17586 -3.26953,5.51953 -1.45322,3.23445 -3.49228,7.9571 -6.11719,14.16797 -2.62509,6.211 -5.62509,13.2774 -9,21.19922 -3.00008,7.12504 -6.24617,14.92972 -9.73828,23.41406 -3.49226,8.48439 -6.8321,16.61719 -10.01953,24.39844 l -14.13282,0 c -6.56254,-16.07811 -13.24222,-32.41403 -20.03906,-49.00782 -6.79689,-16.59368 -11.57814,-28.12492 -14.34375,-34.59375 -1.07814,-2.34366 -2.1211,-4.11319 -3.12891,-5.30859 -1.00782,-1.19522 -2.61328,-2.42569 -4.8164,-3.69141 -1.59376,-0.89053 -3,-1.51162 -4.21875,-1.86328 -1.21875,-0.35147 -2.83594,-0.66787 -4.85156,-0.94922 l 0,-5.48437 54.07031,0 0,5.34375 c -5.06255,0.60947 -8.49614,1.254 -10.30078,1.93359 -1.80473,0.67978 -2.70707,1.53525 -2.70703,2.56641 -4e-5,0.51571 0.082,1.06649 0.24609,1.65234 0.16402,0.58603 0.41012,1.37118 0.73828,2.35547 1.49996,4.12508 4.21871,10.86336 8.15625,20.21485 3.93745,9.35161 9.77338,23.61332 17.50781,42.78515 4.73431,-11.67184 8.67181,-21.53902 11.8125,-29.60156 3.14055,-8.06244 5.90617,-15.18743 8.29688,-21.375 1.17179,-2.99992 2.14444,-5.8007 2.91797,-8.40234 0.77335,-2.60148 1.16007,-4.55851 1.16015,-5.8711 -8e-5,-1.49991 -1.07821,-2.75381 -3.23437,-3.76172 -2.15633,-1.00772 -6.14071,-1.746 -11.95313,-2.21484 l 0,-5.625 40.42969,0 z" />
        <path
           style="fill:#ffffff;fill-opacity:1"
           inkscape:connector-curvature="0"
           id="path4065"
           d="m 356.79785,461.59033 c -7.31255,0 -14.1563,-1.18359 -20.53125,-3.55078 -6.37503,-2.36718 -11.92971,-5.80077 -16.66406,-10.30078 -4.64065,-4.40623 -8.29689,-9.85545 -10.96875,-16.34766 -2.67189,-6.49215 -4.00782,-13.62886 -4.00782,-21.41015 0,-7.73432 1.34765,-14.89447 4.04297,-21.48047 2.6953,-6.58586 6.48045,-12.29289 11.35547,-17.1211 4.78123,-4.73428 10.52341,-8.40224 17.22656,-11.0039 6.70308,-2.60146 13.87495,-3.90224 21.51563,-3.90235 5.53118,1.1e-4 10.57024,0.66808 15.11719,2.00391 4.54679,1.33604 8.39054,2.84775 11.53125,4.53516 l 4.35937,-3.86719 6.11719,0 0.63281,36.42187 -6.1875,0 c -3.51571,-11.1093 -7.73446,-19.26554 -12.65625,-24.46875 -4.92195,-5.20303 -10.92194,-7.80459 -18,-7.80468 -8.81255,9e-5 -15.51567,3.879 -20.10937,11.63672 -4.59379,7.75788 -6.89066,18.64459 -6.89063,32.66015 -3e-5,7.92192 0.78512,14.68363 2.35547,20.28516 1.57027,5.60159 3.62105,10.1133 6.15234,13.53515 2.71871,3.56252 5.92964,6.1758 9.63282,7.83985 3.70307,1.66407 7.80462,2.4961 12.30468,2.49609 6.56243,1e-5 12.41008,-1.78124 17.54297,-5.34375 5.13273,-3.56248 9.8085,-8.9531 14.02735,-16.17187 l 6.04687,3.65625 c -2.01572,4.12502 -4.3126,7.81642 -6.89062,11.07422 -2.57822,3.25782 -5.55478,6.0586 -8.92969,8.40234 -3.70321,2.57813 -7.79305,4.59375 -12.26953,6.04687 -4.47663,1.45313 -9.76179,2.17969 -15.85547,2.17969 z" />
        <path
           style="fill:#ffffff;fill-opacity:1"
           inkscape:connector-curvature="0"
           id="path4067"
           d="m 515.7041,458.91846 -54.35156,0 0,-5.48438 c 2.53118,-0.18749 5.50774,-0.64452 8.92968,-1.37109 3.42181,-0.72656 5.13274,-1.6289 5.13282,-2.70703 -8e-5,-0.37499 -0.0352,-0.79687 -0.10547,-1.26563 -0.0704,-0.46874 -0.26961,-1.10155 -0.59766,-1.89844 l -8.50781,-20.67187 -34.45313,0 c -0.7969,1.92191 -1.67581,4.1719 -2.63672,6.75 -0.96096,2.57815 -1.79299,4.87502 -2.49609,6.89062 -0.89065,2.62502 -1.41799,4.52346 -1.58203,5.69532 -0.16409,1.17188 -0.24612,1.9922 -0.24609,2.46093 -3e-5,1.50001 1.13669,2.77736 3.41015,3.83204 2.27341,1.05469 6.05856,1.81641 11.35547,2.28515 l 0,5.48438 -40.92187,0 0,-5.48438 c 1.54687,-0.0937 3.29296,-0.33984 5.23828,-0.73828 1.94531,-0.39843 3.48046,-0.94921 4.60547,-1.65234 1.92186,-1.12499 3.55077,-2.50781 4.88671,-4.14844 1.33593,-1.64061 2.44921,-3.58592 3.33985,-5.83594 5.43748,-13.17184 10.88669,-26.36714 16.34765,-39.58594 5.46091,-13.21867 11.49606,-27.79679 18.10547,-43.73437 l 14.0625,0 c 9.18743,22.59383 16.38274,40.45319 21.58594,53.57812 5.20304,13.12504 9.63272,24.00003 13.28906,32.625 0.60928,1.40627 1.38272,2.68361 2.32032,3.83204 0.93739,1.14844 2.27333,2.23829 4.00781,3.26953 1.31239,0.75 2.83583,1.3125 4.57031,1.6875 1.73427,0.375 3.30458,0.60938 4.71094,0.70312 z m -52.38281,-40.35938 -14.48438,-36.14062 -14.27344,36.14062 z" />
        <path
           style="fill:#ffffff;fill-opacity:1"
           inkscape:connector-curvature="0"
           id="path4069"
           d="m 610.06347,384.10596 c -1e-4,5.62507 -1.16025,10.46491 -3.48047,14.51953 -2.3204,4.05474 -5.51962,7.34771 -9.59765,9.8789 -4.21883,2.62505 -9.03523,4.52349 -14.44922,5.69532 -5.41413,1.17192 -11.49615,1.75785 -18.24609,1.75781 l -8.15625,0 0,28.05469 c -5e-5,1.68751 0.31636,3.15235 0.94921,4.39453 0.63277,1.2422 1.8398,2.23829 3.6211,2.98828 0.93745,0.37501 2.46088,0.77344 4.57031,1.19531 2.10932,0.42188 3.89057,0.70313 5.34375,0.84375 l 0,5.48438 -54.07031,0 0,-5.48438 c 1.35937,-0.14062 3.16405,-0.33984 5.41406,-0.59765 2.24999,-0.25781 3.8203,-0.57422 4.71094,-0.94922 1.82811,-0.75 3.03514,-1.66406 3.62109,-2.74219 0.58592,-1.07811 0.87889,-2.57811 0.87891,-4.5 l 0,-70.38281 c -2e-5,-1.64054 -0.28127,-3.05851 -0.84375,-4.25391 -0.56252,-1.19522 -1.78127,-2.19131 -3.65625,-2.98828 -1.31252,-0.56241 -3.05861,-1.06631 -5.23828,-1.51172 -2.1797,-0.44522 -3.8086,-0.73819 -4.88672,-0.87891 l 0,-5.48437 55.05469,0 c 12.89055,1e-4 22.52335,2.05088 28.89843,6.15234 6.37491,4.10166 9.5624,10.37118 9.5625,18.8086 z m -27.42187,3.58593 c -7e-5,-7.49992 -1.51179,-13.06632 -4.53516,-16.69921 -3.0235,-3.63273 -8.4024,-5.44913 -16.13672,-5.44922 l -5.83593,0 0,43.80468 2.95312,0 c 7.68745,5e-5 13.5351,-1.76948 17.54297,-5.30859 4.00774,-3.539 6.01165,-8.98822 6.01172,-16.34766 z" />
      </g>
      <text
         sodipodi:linespacing="125%"
         id="text4071"
         y="604.51221"
         x="11.919958"
         style="font-size:32px;font-style:normal;font-variant:normal;font-weight:900;font-stretch:normal;text-align:start;line-height:125%;letter-spacing:0px;word-spacing:0px;writing-mode:lr-tb;text-anchor:start;fill:#225500;fill-opacity:1;stroke:none;font-family:Arial Black;-inkscape-font-specification:'Arial Black, Heavy'"
         xml:space="preserve"><tspan
           id="tspan4075"
           sodipodi:role="line"
           x="11.919958"
           y="604.51221">Malmesbury and the Villages Community Area Partnership</tspan></text>
      <rect
         y="619.62079"
         x="12.771386"
         height="61.30265"
         width="1017.4537"
         id="rect4077"
         style="fill:#225500;fill-opacity:1;stroke:#1e1f8d;stroke-width:5.83910608;stroke-linejoin:bevel;stroke-miterlimit:4;stroke-opacity:0.00584795;stroke-dasharray:none" />
      <text
         transform="translate(0,308.2677)"
         sodipodi:linespacing="125%"
         id="text4101"
         y="410.55939"
         x="350.39246"
         style="font-size:40px;font-style:normal;font-variant:normal;font-weight:normal;font-stretch:normal;text-align:start;line-height:125%;letter-spacing:0px;word-spacing:0px;writing-mode:lr-tb;text-anchor:start;fill:#000000;fill-opacity:1;stroke:none;font-family:Arial;-inkscape-font-specification:Arial"
         xml:space="preserve"><tspan
           y="410.55939"
           x="350.39246"
           id="tspan4103"
           sodipodi:role="line" /></text>
    </g>
  </g>
</svg>
