<?xml version="1.0" encoding="UTF-8" standalone="no"?>
<!-- Created with Inkscape (http://www.inkscape.org/) -->

<svg
   xmlns:dc="http://purl.org/dc/elements/1.1/"
   xmlns:cc="http://creativecommons.org/ns#"
   xmlns:rdf="http://www.w3.org/1999/02/22-rdf-syntax-ns#"
   xmlns:svg="http://www.w3.org/2000/svg"
   xmlns="http://www.w3.org/2000/svg"
   xmlns:sodipodi="http://sodipodi.sourceforge.net/DTD/sodipodi-0.dtd"
   xmlns:inkscape="http://www.inkscape.org/namespaces/inkscape"
   width="671.06165mm"
   height="116.61924mm"
   viewBox="0 0 671.06165 116.61924"
   version="1.1"
   id="svg8"
   inkscape:version="0.92.2 (5c3e80d, 2017-08-06)"
   sodipodi:docname="title.svg">
  <defs
     id="defs2" />
  <sodipodi:namedview
     id="base"
     pagecolor="#ffffff"
     bordercolor="#666666"
     borderopacity="1.0"
     inkscape:pageopacity="0.0"
     inkscape:pageshadow="2"
     inkscape:zoom="0.35"
     inkscape:cx="1241.6787"
     inkscape:cy="400.27276"
     inkscape:document-units="mm"
     inkscape:current-layer="layer1"
     showgrid="false"
     inkscape:window-width="1366"
     inkscape:window-height="706"
     inkscape:window-x="-8"
     inkscape:window-y="-8"
     inkscape:window-maximized="1"
     fit-margin-left="10"
     fit-margin-top="10"
     fit-margin-bottom="10"
     fit-margin-right="10" />
  <metadata
     id="metadata5">
    <rdf:RDF>
      <cc:Work
         rdf:about="">
        <dc:format>image/svg+xml</dc:format>
        <dc:type
           rdf:resource="http://purl.org/dc/dcmitype/StillImage" />
        <dc:title></dc:title>
      </cc:Work>
    </rdf:RDF>
  </metadata>
  <g
     inkscape:label="Layer 1"
     inkscape:groupmode="layer"
     id="layer1"
     transform="translate(225.63008,-81.355313)">
    <path
       inkscape:connector-curvature="0"
       style="font-style:normal;font-variant:normal;font-weight:normal;font-stretch:normal;font-size:69.79893494px;line-height:125%;font-family:'Poiret One';-inkscape-font-specification:'Poiret One, Normal';font-variant-ligatures:normal;font-variant-caps:normal;font-variant-numeric:normal;font-feature-settings:normal;text-align:center;letter-spacing:0px;word-spacing:0px;writing-mode:lr-tb;text-anchor:middle;fill:#800000;fill-opacity:1;stroke:#3c0000;stroke-width:3;stroke-linecap:butt;stroke-linejoin:miter;stroke-miterlimit:4;stroke-dasharray:none;stroke-opacity:1"
       d="m -61.242773,92.855313 c -7.445218,0 -13.843441,2.675649 -19.194692,8.026897 -5.351254,5.30472 -8.026903,11.65648 -8.026903,19.05517 0,4.69979 1.18631,9.14355 3.559474,13.33149 2.419697,4.14139 5.700374,7.46853 9.841778,9.9813 4.141401,2.51276 8.608388,3.76928 13.401249,3.76928 h 0.76791 c 5.11859,0 9.725475,-1.27975 13.820344,-3.83904 v -18.91564 h -19.61379 v 2.02416 h 17.310055 v 15.77475 c -4.094869,1.95437 -8.049749,2.9316 -11.865425,2.9316 -6.840294,0 -12.703698,-2.46657 -17.589624,-7.39903 -4.885925,-4.93246 -7.328752,-10.81858 -7.328752,-17.65887 0,-6.88683 2.442827,-12.77346 7.328752,-17.65939 4.885926,-4.932454 10.74933,-7.398511 17.589624,-7.398511 5.072057,0 9.795095,1.488824 14.16916,4.46691 v -2.58227 c -4.46713,-2.605828 -9.19017,-3.908806 -14.16916,-3.908806 z m -152.887307,1.046964 v 2.024166 h 12.07523 v 50.325097 h 2.30374 V 95.926443 h 11.93519 v -2.024166 z m 311.91429,0 22.96346,53.256703 11.09803,-25.54677 11.09803,25.54677 23.24354,-53.256703 h -1.88464 L 143.15353,142.06368 133.242,119.0997 144.13073,93.902277 h -1.9544 l -9.9813,22.963973 -9.70225,-22.963973 h -2.51251 l 10.81846,25.267193 -9.70173,22.6844 -20.73052,-47.951593 z m 155.36364,0 v 52.349263 h 2.30322 v -19.05517 h 0.55862 c 4.23447,0 8.09643,-1.62872 11.58637,-4.88601 3.53647,-3.25728 5.30458,-7.14247 5.30458,-11.65613 0,-4.51366 -1.69841,-8.4226 -5.09529,-11.72642 -3.39688,-3.35035 -7.51488,-5.025533 -12.35428,-5.025533 z m -435.31192,0.06976 v 52.279503 h 2.23345 v -18.28726 c 0,-3.21075 1.21006,-6.00307 3.62976,-8.37623 2.4197,-2.37317 5.23472,-3.55948 8.44548,-3.55948 3.21074,0 5.95608,1.18631 8.23618,3.55948 2.2801,2.32663 3.41995,5.11894 3.41995,8.37623 v 18.28726 h 2.23397 v -18.28726 c 0,-3.86221 -1.34944,-7.14288 -4.04833,-9.84177 -2.65236,-2.6989 -5.93303,-4.04834 -9.84177,-4.04834 -5.72352,0 -9.7486,2.28021 -12.07524,6.84041 V 93.97204 Z m 437.61514,1.954403 h 0.55862 c 3.81568,0 7.18928,1.465593 10.12084,4.39715 2.97807,2.93155 4.46691,6.37536 4.46691,10.33064 0,3.95527 -1.46561,7.37532 -4.39716,10.26035 -2.88501,2.88502 -6.28185,4.32739 -10.19059,4.32739 h -0.55862 z m -196.743543,6.28179 v 32.66622 c 0,3.44342 1.163595,6.28168 3.490225,8.51524 2.326632,2.18704 5.141664,3.28043 8.445481,3.28043 v -1.95441 c -2.698893,0 -5.002337,-0.93026 -6.910173,-2.79156 -1.861307,-1.8613 -2.792079,-4.2112 -2.792079,-7.0497 v -18.0082 h 9.632489 v -1.9544 h -9.632489 v -12.70362 z m 362.218203,0 v 32.66622 c 0,3.44342 1.16358,6.28168 3.49022,8.51524 2.32664,2.18704 5.14167,3.28043 8.44547,3.28043 v -1.95441 c -2.69888,0 -5.00234,-0.93026 -6.91017,-2.79156 -1.86129,-1.8613 -2.79207,-4.2112 -2.79207,-7.0497 v -18.0082 h 9.63247 v -1.9544 h -9.63247 v -12.70362 z m -77.46918,1.25626 c -1.34946,0 -2.02417,0.62825 -2.02417,1.88463 0,1.25638 0.67471,1.88464 2.02417,1.88464 1.34945,0 2.02417,-0.62826 2.02417,-1.88464 0,-1.25638 -0.67472,-1.88463 -2.02417,-1.88463 z m -370.403224,10.60968 c -2.187036,0 -4.164733,0.51159 -5.932972,1.53531 -1.76824,1.02371 -3.071217,2.32669 -3.908806,3.90881 v -4.67621 h -2.233456 v 31.40946 h 2.233456 v -20.93981 c 0,-2.46623 0.930772,-4.62977 2.792079,-6.49108 1.907836,-1.8613 4.095126,-2.79208 6.561354,-2.79208 2.466231,0 4.722695,1.0237 6.770131,3.07113 v -2.79207 c -2.000903,-1.48905 -4.094754,-2.23346 -6.281786,-2.23346 z m 61.548697,0 c -4.560197,0 -8.469134,1.62872 -11.726417,4.88601 -3.257284,3.21075 -4.886006,7.07271 -4.886006,11.58637 0,4.51367 1.628722,8.39938 4.886006,11.65666 3.257283,3.21075 7.16622,4.81624 11.726417,4.81624 2.978086,0 5.769887,-0.76816 8.375716,-2.30374 2.605825,-1.53557 4.560292,-3.62942 5.863206,-6.28179 v 7.81762 h 2.233456 v -31.40946 h -2.233456 v 7.88738 c -1.07025,-2.60583 -2.978256,-4.70019 -5.723681,-6.28231 -2.698893,-1.5821 -5.537155,-2.37298 -8.515241,-2.37298 z m 144.096627,0 c -4.5602,0 -8.46913,1.62872 -11.72642,4.88601 -3.25728,3.21075 -4.886,7.07271 -4.886,11.58637 0,4.51367 1.62872,8.39938 4.886,11.65666 3.25729,3.21075 7.16622,4.81624 11.72642,4.81624 2.97809,0 5.76989,-0.76816 8.37572,-2.30374 2.60582,-1.53557 4.56029,-3.62942 5.8632,-6.28179 v 7.81762 h 2.23346 v -31.40946 h -2.23346 v 7.88738 c -1.07025,-2.60583 -2.97826,-4.70019 -5.72368,-6.28231 -2.69889,-1.5821 -5.53715,-2.37298 -8.51524,-2.37298 z m 36.87889,0 c -2.18704,0 -4.16474,0.51159 -5.93298,1.53531 -1.76823,1.02371 -3.07121,2.32669 -3.9088,3.90881 v -4.67621 h -2.23345 v 31.40946 h 2.23345 v -20.93981 c 0,-2.46623 0.93078,-4.62977 2.79208,-6.49108 1.90784,-1.8613 4.09461,-2.79208 6.56084,-2.79208 2.46623,0 4.72321,1.0237 6.77064,3.07113 v -2.79207 c -2.0009,-1.48905 -4.09475,-2.23346 -6.28178,-2.23346 z m 75.93334,0 c -2.18702,0 -4.16473,0.51159 -5.93297,1.53531 -1.76824,1.02371 -3.0712,2.32669 -3.90879,3.90881 v -4.67621 h -2.23346 v 31.40946 h 2.23346 v -20.93981 c 0,-2.46623 0.93075,-4.62977 2.79206,-6.49108 1.90784,-1.8613 4.09512,-2.79208 6.56135,-2.79208 2.46624,0 4.72271,1.0237 6.77014,3.07113 v -2.79207 c -2.00089,-1.48905 -4.09475,-2.23346 -6.28179,-2.23346 z m 27.0583,0 c -4.5602,0 -8.46913,1.62872 -11.72642,4.88601 -3.25728,3.21075 -4.886,7.02624 -4.886,11.44684 0,4.4206 1.60549,8.30631 4.81623,11.65666 3.21078,3.30382 7.04948,4.95577 11.51663,4.95577 h 0.62838 c 4.51366,0 8.3524,-1.65195 11.5166,-4.95577 3.16423,-3.30382 4.74649,-7.16629 4.74649,-11.58689 0,-4.46713 -1.62872,-8.30586 -4.886,-11.51661 -3.21077,-3.25729 -7.11917,-4.88601 -11.72591,-4.88601 z m -449.31469,0.0698 c -4.79286,0 -8.81795,1.62872 -12.07523,4.886 -3.25729,3.21075 -4.88549,7.02625 -4.88549,11.44685 0,4.4206 1.6282,8.30631 4.88549,11.65665 3.30381,3.30382 7.16629,4.95577 11.58689,4.95577 h 0.62839 c 4.69979,0 8.70113,-1.81508 12.00495,-5.44463 v -3.55947 c -1.44252,2.14051 -3.28031,3.86215 -5.51388,5.16506 -2.18703,1.25638 -4.67632,1.88464 -7.46827,1.88464 -2.79196,0 -5.70043,-1.21005 -8.72505,-3.62975 l 21.917,-21.63744 c -3.44341,-3.81567 -7.56194,-5.72368 -12.3548,-5.72368 z m 131.55476293,0 c -4.79286033,0 -8.81794853,1.62872 -12.07523193,4.886 -3.257284,3.21075 -4.886006,7.02625 -4.886006,11.44685 0,4.4206 1.628722,8.30631 4.886006,11.65665 3.3038162,3.30382 7.1662905,4.95577 11.58688963,4.95577 h 0.62786865 c 4.69979492,0 8.70165242,-1.81508 12.00546872,-5.44463 v -3.55947 c -1.442511,2.14051 -3.2803097,3.86215 -5.5138753,5.16506 -2.1870334,1.25638 -4.6768374,1.88464 -7.46879474,1.88464 -2.79195746,0 -5.69991156,-1.21005 -8.72453186,-3.62975 L 13.163537,119.86762 C 9.7201232,116.05195 5.6021131,114.14394 0.80925293,114.14394 Z m 368.62556707,0 c -4.79287,0 -8.81795,1.62872 -12.07524,4.886 -3.25728,3.21075 -4.88601,7.02625 -4.88601,11.44685 0,4.4206 1.62873,8.30631 4.88601,11.65665 3.30383,3.30382 7.16629,4.95577 11.5869,4.95577 h 0.62785 c 4.6998,0 8.70167,-1.81508 12.00547,-5.44463 v -3.55947 c -1.44251,2.14051 -3.2803,3.86215 -5.51386,5.16506 -2.18705,1.25638 -4.67685,1.88464 -7.46882,1.88464 -2.79193,0 -5.69989,-1.21005 -8.72453,-3.62975 l 21.91703,-21.63744 c -3.44342,-3.81567 -7.56195,-5.72368 -12.3548,-5.72368 z m 34.07182,0.0698 c -4.74633,0 -8.74821,1.62873 -12.00546,4.886 -3.25732,3.21076 -4.88601,7.04948 -4.88601,11.51662 0,4.4206 1.60549,8.28307 4.81623,11.58689 3.21075,3.30382 7.04948,4.95577 11.5166,4.95577 h 0.62839 c 4.79287,0 8.81795,-1.79186 12.07524,-5.37487 v -3.62924 c -1.44251,2.18704 -3.28031,3.90868 -5.51387,5.16506 -2.18704,1.25639 -4.49048,1.88464 -6.91017,1.88464 -3.86223,0 -7.2358,-1.41913 -10.12084,-4.25762 -2.83848,-2.88502 -4.25813,-6.3056 -4.25813,-10.26087 0,-3.95527 1.41965,-7.3521 4.25813,-10.19059 2.88504,-2.88502 6.25861,-4.32739 10.12084,-4.32739 2.41969,0 4.72313,0.62826 6.91017,1.88464 2.23356,1.25638 4.07136,2.9548 5.51387,5.0953 v -3.55999 c -3.35037,-3.58302 -7.39868,-5.37435 -12.14499,-5.37435 z m -61.23659,0.62838 v 33.43362 c 0,2.83849 -0.95398,5.18839 -2.86184,7.0497 -1.90783,1.86131 -4.2345,2.79208 -6.97992,2.79208 v 1.9544 c 3.35034,0 6.18911,-1.11713 8.51575,-3.3507 2.37315,-2.18703 3.55946,-5.00207 3.55946,-8.44548 v -33.43362 z m -307.598265,1.18649 c 3.90874,0 7.259109,1.44237 10.051066,4.32739 2.83849,2.88503 4.257622,6.30508 4.257622,10.26036 0,3.90874 -1.395902,7.30557 -4.187859,10.19059 -2.791958,2.83849 -6.165557,4.25813 -10.120829,4.25813 -3.908739,0 -7.305569,-1.41964 -10.190592,-4.25813 -2.83849,-2.88502 -4.258138,-6.28185 -4.258138,-10.19059 0,-3.90874 1.419648,-7.30557 4.258138,-10.1906 2.885023,-2.93155 6.281853,-4.39715 10.190592,-4.39715 z m 144.096635,0 c 3.90874,0 7.25911,1.44237 10.05106,4.32739 2.83849,2.88503 4.25762,6.30508 4.25762,10.26036 0,3.90874 -1.3959,7.30557 -4.18786,10.19059 -2.79196,2.83849 -6.16555,4.25813 -10.12082,4.25813 -3.90874,0 -7.30558,-1.41964 -10.1906,-4.25813 -2.83849,-2.88502 -4.25814,-6.28185 -4.25814,-10.19059 0,-3.90874 1.41965,-7.30557 4.25814,-10.1906 2.88502,-2.93155 6.28186,-4.39715 10.1906,-4.39715 z m 139.87053,0 c 3.90874,0 7.25911,1.44237 10.05107,4.32739 2.83848,2.88503 4.25762,6.30508 4.25762,10.26036 0,3.90874 -1.39591,7.30557 -4.18788,10.19059 -2.79193,2.83849 -6.16553,4.25813 -10.12081,4.25813 -3.90874,0 -7.30557,-1.41964 -10.19059,-4.25813 -2.8385,-2.88502 -4.25815,-6.28185 -4.25815,-10.19059 0,-3.90874 1.41965,-7.30557 4.25815,-10.1906 2.88502,-2.93155 6.28185,-4.39715 10.19059,-4.39715 z m -450.01233,0.0698 c 3.72262,0 7.02653,1.25652 9.91154,3.76928 l -20.31193,20.17189 c -2.46623,-2.79195 -3.699,-6.0494 -3.699,-9.77201 0,-3.72261 1.41913,-7.00328 4.25762,-9.84178 2.88503,-2.88502 6.1657,-4.32738 9.84177,-4.32738 z m 131.55476428,0 c 3.72260972,0 7.02600002,1.25652 9.91102272,3.76928 l -20.311421,20.17189 c -2.46623,-2.79195 -3.698999,-6.0494 -3.698999,-9.77201 0,-3.72261 1.419131,-7.00328 4.2576208,-9.84178 2.8850227,-2.88502 6.1656994,-4.32738 9.84177648,-4.32738 z m 368.62555572,0 c 3.72261,0 7.02601,1.25652 9.91102,3.76928 l -20.31142,20.17189 c -2.46624,-2.79195 -3.69898,-6.0494 -3.69898,-9.77201 0,-3.72261 1.41912,-7.00328 4.25762,-9.84178 2.88501,-2.88502 6.16569,-4.32738 9.84176,-4.32738 z"
       id="path1228" />
    <g
       aria-label="A living memorial for the centenary of the First World War"
       style="font-style:normal;font-variant:normal;font-weight:normal;font-stretch:normal;font-size:26.08922005px;line-height:125%;font-family:'Poiret One';-inkscape-font-specification:'Poiret One, Normal';font-variant-ligatures:normal;font-variant-caps:normal;font-variant-numeric:normal;font-feature-settings:normal;text-align:center;letter-spacing:0px;word-spacing:0px;writing-mode:lr-tb;text-anchor:middle;fill:#3c0000;fill-opacity:1;stroke:#3c0000;stroke-width:0.38699999;stroke-linecap:butt;stroke-linejoin:miter;stroke-miterlimit:4;stroke-dasharray:none;stroke-opacity:1"
       id="text16">
      <path
         d="m -202.44606,162.31797 9.78346,20.03652 h -0.91312 l -3.70467,-7.46151 h -10.46178 l -3.65249,7.46151 h -0.80877 z m -0.0783,1.80016 -4.87868,10.01826 h 9.80955 z"
         style="font-style:normal;font-variant:normal;font-weight:normal;font-stretch:normal;font-size:26.08922005px;font-family:'Poiret One';-inkscape-font-specification:'Poiret One, Normal';font-variant-ligatures:normal;font-variant-caps:normal;font-variant-numeric:normal;font-feature-settings:normal;text-align:center;writing-mode:lr-tb;text-anchor:middle;fill:#3c0000;fill-opacity:1;stroke:#3c0000;stroke-width:0.38699999;stroke-miterlimit:4;stroke-dasharray:none;stroke-opacity:1"
         id="path1293" />
      <path
         d="m -176.74287,181.8588 v 0.7305 q -1.85234,0 -3.1568,-1.2262 -1.30446,-1.25228 -1.30446,-3.18288 v -15.39264 h 0.83485 v 15.39264 q 0,1.59144 1.04357,2.63501 1.06966,1.04357 2.58284,1.04357 z"
         style="font-style:normal;font-variant:normal;font-weight:normal;font-stretch:normal;font-size:26.08922005px;font-family:'Poiret One';-inkscape-font-specification:'Poiret One, Normal';font-variant-ligatures:normal;font-variant-caps:normal;font-variant-numeric:normal;font-feature-settings:normal;text-align:center;writing-mode:lr-tb;text-anchor:middle;fill:#3c0000;fill-opacity:1;stroke:#3c0000;stroke-width:0.38699999;stroke-miterlimit:4;stroke-dasharray:none;stroke-opacity:1"
         id="path1295" />
      <path
         d="m -173.45686,170.64043 v 11.71406 h -0.83485 v -11.71406 z m -0.41742,-2.86981 q -0.75659,0 -0.75659,-0.70441 0,-0.70441 0.75659,-0.70441 0.75658,0 0.75658,0.70441 0,0.70441 -0.75658,0.70441 z"
         style="font-style:normal;font-variant:normal;font-weight:normal;font-stretch:normal;font-size:26.08922005px;font-family:'Poiret One';-inkscape-font-specification:'Poiret One, Normal';font-variant-ligatures:normal;font-variant-caps:normal;font-variant-numeric:normal;font-feature-settings:normal;text-align:center;writing-mode:lr-tb;text-anchor:middle;fill:#3c0000;fill-opacity:1;stroke:#3c0000;stroke-width:0.38699999;stroke-miterlimit:4;stroke-dasharray:none;stroke-opacity:1"
         id="path1297" />
      <path
         d="m -160.10611,170.61434 h 0.75659 l -5.76572,12.07931 -5.79181,-12.07931 h 0.91313 l 4.95695,10.30525 z"
         style="font-style:normal;font-variant:normal;font-weight:normal;font-stretch:normal;font-size:26.08922005px;font-family:'Poiret One';-inkscape-font-specification:'Poiret One, Normal';font-variant-ligatures:normal;font-variant-caps:normal;font-variant-numeric:normal;font-feature-settings:normal;text-align:center;writing-mode:lr-tb;text-anchor:middle;fill:#3c0000;fill-opacity:1;stroke:#3c0000;stroke-width:0.38699999;stroke-miterlimit:4;stroke-dasharray:none;stroke-opacity:1"
         id="path1299" />
      <path
         d="m -155.97912,170.64043 v 11.71406 h -0.83485 v -11.71406 z m -0.41743,-2.86981 q -0.75658,0 -0.75658,-0.70441 0,-0.70441 0.75658,-0.70441 0.75659,0 0.75659,0.70441 0,0.70441 -0.75659,0.70441 z"
         style="font-style:normal;font-variant:normal;font-weight:normal;font-stretch:normal;font-size:26.08922005px;font-family:'Poiret One';-inkscape-font-specification:'Poiret One, Normal';font-variant-ligatures:normal;font-variant-caps:normal;font-variant-numeric:normal;font-feature-settings:normal;text-align:center;writing-mode:lr-tb;text-anchor:middle;fill:#3c0000;fill-opacity:1;stroke:#3c0000;stroke-width:0.38699999;stroke-miterlimit:4;stroke-dasharray:none;stroke-opacity:1"
         id="path1301" />
      <path
         d="m -151.68133,182.35449 h -0.83485 v -11.74015 h 0.83485 v 2.37412 q 1.33055,-2.6611 4.53953,-2.6611 2.19149,0 3.67858,1.51318 1.48708,1.51317 1.48708,3.67858 v 6.83537 h -0.83485 v -6.83537 q 0,-1.80016 -1.27837,-3.13071 -1.25229,-1.33055 -3.05244,-1.33055 -1.80016,0 -3.18289,1.33055 -1.35664,1.33055 -1.35664,3.13071 z"
         style="font-style:normal;font-variant:normal;font-weight:normal;font-stretch:normal;font-size:26.08922005px;font-family:'Poiret One';-inkscape-font-specification:'Poiret One, Normal';font-variant-ligatures:normal;font-variant-caps:normal;font-variant-numeric:normal;font-feature-settings:normal;text-align:center;writing-mode:lr-tb;text-anchor:middle;fill:#3c0000;fill-opacity:1;stroke:#3c0000;stroke-width:0.38699999;stroke-miterlimit:4;stroke-dasharray:none;stroke-opacity:1"
         id="path1303" />
      <path
         d="m -127.95481,170.61434 h 0.83486 v 10.6444 q 0,3.02635 -1.66971,4.77433 -1.66971,1.74798 -4.38299,1.74798 -1.48709,0 -2.89591,-0.67832 -1.40881,-0.67832 -2.19149,-1.77407 v -1.2001 q 0.67832,1.25228 2.11323,2.08714 1.46099,0.83485 2.97417,0.83485 2.29585,0 3.75684,-1.56535 1.461,-1.53927 1.461,-4.22646 v -1.74797 q -0.70441,1.4349 -2.21758,2.29585 -1.51318,0.86094 -3.13071,0.86094 -2.55674,0 -4.38299,-1.80015 -1.82624,-1.82625 -1.82624,-4.3569 0,-2.53066 1.82624,-4.33081 1.82625,-1.82625 4.38299,-1.82625 1.6958,0 3.1568,0.86095 1.48708,0.83485 2.19149,2.32194 z m -10.72267,5.89617 q 0,2.21758 1.59144,3.83511 1.61754,1.59144 3.80903,1.59144 2.21758,0 3.78294,-1.59144 1.56535,-1.61753 1.56535,-3.83511 0,-2.21759 -1.56535,-3.80903 -1.56536,-1.61753 -3.78294,-1.61753 -2.19149,0 -3.80903,1.61753 -1.59144,1.59144 -1.59144,3.80903 z"
         style="font-style:normal;font-variant:normal;font-weight:normal;font-stretch:normal;font-size:26.08922005px;font-family:'Poiret One';-inkscape-font-specification:'Poiret One, Normal';font-variant-ligatures:normal;font-variant-caps:normal;font-variant-numeric:normal;font-feature-settings:normal;text-align:center;writing-mode:lr-tb;text-anchor:middle;fill:#3c0000;fill-opacity:1;stroke:#3c0000;stroke-width:0.38699999;stroke-miterlimit:4;stroke-dasharray:none;stroke-opacity:1"
         id="path1305" />
      <path
         d="m -106.72023,173.09282 q 0.39134,-1.25228 1.48709,-2.00887 1.12183,-0.75659 2.71328,-0.75659 1.59144,0 2.791543,1.14793 1.200104,1.14792 1.200104,3.10461 v 7.77459 h -0.834855 v -7.77459 q 0,-1.51317 -0.991392,-2.50456 -0.99139,-1.01748 -2.40021,-1.01748 -1.38273,0 -2.47847,1.04357 -1.06966,1.04357 -1.06966,2.4263 v 7.82676 h -0.83486 v -7.82676 q 0,-1.40882 -0.99139,-2.4263 -0.99139,-1.04357 -2.4002,-1.04357 -1.40882,0 -2.45239,1.04357 -1.04357,1.04357 -1.04357,2.4263 v 7.82676 h -0.83485 v -11.74015 h 0.83485 v 1.64362 q 0.52178,-0.78267 1.53926,-1.35664 1.04357,-0.57396 2.13932,-0.57396 1.12184,0 2.13932,0.78268 1.01748,0.75659 1.48708,1.98278 z"
         style="font-style:normal;font-variant:normal;font-weight:normal;font-stretch:normal;font-size:26.08922005px;font-family:'Poiret One';-inkscape-font-specification:'Poiret One, Normal';font-variant-ligatures:normal;font-variant-caps:normal;font-variant-numeric:normal;font-feature-settings:normal;text-align:center;writing-mode:lr-tb;text-anchor:middle;fill:#3c0000;fill-opacity:1;stroke:#3c0000;stroke-width:0.38699999;stroke-miterlimit:4;stroke-dasharray:none;stroke-opacity:1"
         id="path1307" />
      <path
         d="m -89.524979,182.66756 h -0.234803 q -2.478476,0 -4.33081,-1.85233 -1.826246,-1.87843 -1.826246,-4.3569 0,-2.47848 1.826246,-4.27863 1.826245,-1.82625 4.513435,-1.82625 2.687189,0 4.617792,2.13932 l -8.192015,8.08766 q 1.695799,1.35663 3.261152,1.35663 1.565353,0 2.791547,-0.7044 1.252282,-0.7305 2.061048,-1.93061 v 1.33055 q -1.852335,2.03496 -4.487346,2.03496 z m -0.286981,-11.58361 q -2.061049,0 -3.67858,1.61753 -1.591443,1.59144 -1.591443,3.67858 0,2.08714 1.382729,3.65249 l 7.591963,-7.53978 q -1.617532,-1.40882 -3.704669,-1.40882 z"
         style="font-style:normal;font-variant:normal;font-weight:normal;font-stretch:normal;font-size:26.08922005px;font-family:'Poiret One';-inkscape-font-specification:'Poiret One, Normal';font-variant-ligatures:normal;font-variant-caps:normal;font-variant-numeric:normal;font-feature-settings:normal;text-align:center;writing-mode:lr-tb;text-anchor:middle;fill:#3c0000;fill-opacity:1;stroke:#3c0000;stroke-width:0.38699999;stroke-miterlimit:4;stroke-dasharray:none;stroke-opacity:1"
         id="path1309" />
      <path
         d="m -74.363478,173.09282 q 0.391339,-1.25228 1.487086,-2.00887 1.121836,-0.75659 2.713279,-0.75659 1.591442,0 2.791546,1.14793 1.200104,1.14792 1.200104,3.10461 v 7.77459 h -0.834855 v -7.77459 q 0,-1.51317 -0.99139,-2.50456 -0.99139,-1.01748 -2.400208,-1.01748 -1.382729,0 -2.478476,1.04357 -1.069658,1.04357 -1.069658,2.4263 v 7.82676 h -0.834855 v -7.82676 q 0,-1.40882 -0.991391,-2.4263 -0.99139,-1.04357 -2.400208,-1.04357 -1.408818,0 -2.452387,1.04357 -1.043568,1.04357 -1.043568,2.4263 v 7.82676 h -0.834855 v -11.74015 h 0.834855 v 1.64362 q 0.521784,-0.78267 1.539264,-1.35664 1.043568,-0.57396 2.139316,-0.57396 1.121836,0 2.139316,0.78268 1.017479,0.75659 1.487085,1.98278 z"
         style="font-style:normal;font-variant:normal;font-weight:normal;font-stretch:normal;font-size:26.08922005px;font-family:'Poiret One';-inkscape-font-specification:'Poiret One, Normal';font-variant-ligatures:normal;font-variant-caps:normal;font-variant-numeric:normal;font-feature-settings:normal;text-align:center;writing-mode:lr-tb;text-anchor:middle;fill:#3c0000;fill-opacity:1;stroke:#3c0000;stroke-width:0.38699999;stroke-miterlimit:4;stroke-dasharray:none;stroke-opacity:1"
         id="path1311" />
      <path
         d="m -57.585656,182.64147 q -2.504565,0 -4.304721,-1.85233 -1.800156,-1.87842 -1.800156,-4.3569 0,-2.47848 1.826245,-4.27863 1.826246,-1.82625 4.382989,-1.82625 2.582833,0 4.382989,1.82625 1.826245,1.80015 1.826245,4.30472 0,2.47847 -1.774066,4.33081 -1.774067,1.85233 -4.304722,1.85233 z m 5.478736,-6.13096 q 0,-2.21759 -1.591442,-3.83512 -1.565353,-1.61753 -3.756848,-1.61753 -2.191494,0 -3.809026,1.64362 -1.591442,1.61753 -1.591442,3.80903 0,2.19149 1.591442,3.80902 1.617532,1.59145 3.809026,1.59145 2.217584,0 3.782937,-1.59145 1.565353,-1.61753 1.565353,-3.80902 z"
         style="font-style:normal;font-variant:normal;font-weight:normal;font-stretch:normal;font-size:26.08922005px;font-family:'Poiret One';-inkscape-font-specification:'Poiret One, Normal';font-variant-ligatures:normal;font-variant-caps:normal;font-variant-numeric:normal;font-feature-settings:normal;text-align:center;writing-mode:lr-tb;text-anchor:middle;fill:#3c0000;fill-opacity:1;stroke:#3c0000;stroke-width:0.38699999;stroke-miterlimit:4;stroke-dasharray:none;stroke-opacity:1"
         id="path1313" />
      <path
         d="m -41.909306,172.20579 q -1.147925,-1.14793 -2.530654,-1.14793 -1.382729,0 -2.452387,1.04357 -1.043568,1.04357 -1.043568,2.4263 v 7.82676 h -0.834855 v -11.74015 h 0.834855 v 1.74798 q 0.469606,-0.88703 1.460996,-1.461 0.99139,-0.57396 2.217584,-0.57396 1.226193,0 2.348029,0.83486 z"
         style="font-style:normal;font-variant:normal;font-weight:normal;font-stretch:normal;font-size:26.08922005px;font-family:'Poiret One';-inkscape-font-specification:'Poiret One, Normal';font-variant-ligatures:normal;font-variant-caps:normal;font-variant-numeric:normal;font-feature-settings:normal;text-align:center;writing-mode:lr-tb;text-anchor:middle;fill:#3c0000;fill-opacity:1;stroke:#3c0000;stroke-width:0.38699999;stroke-miterlimit:4;stroke-dasharray:none;stroke-opacity:1"
         id="path1315" />
      <path
         d="m -38.526672,170.64043 v 11.71406 h -0.834855 v -11.71406 z m -0.417427,-2.86981 q -0.756588,0 -0.756588,-0.70441 0,-0.70441 0.756588,-0.70441 0.756587,0 0.756587,0.70441 0,0.70441 -0.756587,0.70441 z"
         style="font-style:normal;font-variant:normal;font-weight:normal;font-stretch:normal;font-size:26.08922005px;font-family:'Poiret One';-inkscape-font-specification:'Poiret One, Normal';font-variant-ligatures:normal;font-variant-caps:normal;font-variant-numeric:normal;font-feature-settings:normal;text-align:center;writing-mode:lr-tb;text-anchor:middle;fill:#3c0000;fill-opacity:1;stroke:#3c0000;stroke-width:0.38699999;stroke-miterlimit:4;stroke-dasharray:none;stroke-opacity:1"
         id="path1317" />
      <path
         d="m -23.349679,170.61434 v 11.74015 h -0.834855 v -2.92199 q -0.730499,1.48709 -2.191495,2.34803 -1.460996,0.86094 -3.130706,0.86094 -2.556744,0 -4.382989,-1.80015 -1.826246,-1.82625 -1.826246,-4.3569 0,-2.53066 1.826246,-4.33081 1.826245,-1.82625 4.382989,-1.82625 1.66971,0 3.182885,0.88704 1.539264,0.88703 2.139316,2.34803 v -2.94809 z m -11.531436,5.89617 q 0,2.19149 1.591443,3.80902 1.617531,1.59145 3.809026,1.59145 2.217584,0 3.782937,-1.59145 1.565353,-1.61753 1.565353,-3.80902 0,-2.21759 -1.591442,-3.83512 -1.565354,-1.61753 -3.756848,-1.61753 -2.191495,0 -3.809026,1.64362 -1.591443,1.61753 -1.591443,3.80903 z"
         style="font-style:normal;font-variant:normal;font-weight:normal;font-stretch:normal;font-size:26.08922005px;font-family:'Poiret One';-inkscape-font-specification:'Poiret One, Normal';font-variant-ligatures:normal;font-variant-caps:normal;font-variant-numeric:normal;font-feature-settings:normal;text-align:center;writing-mode:lr-tb;text-anchor:middle;fill:#3c0000;fill-opacity:1;stroke:#3c0000;stroke-width:0.38699999;stroke-miterlimit:4;stroke-dasharray:none;stroke-opacity:1"
         id="path1319" />
      <path
         d="m -15.774434,181.8588 v 0.7305 q -1.852334,0 -3.156795,-1.2262 -1.304461,-1.25228 -1.304461,-3.18288 v -15.39264 h 0.834855 v 15.39264 q 0,1.59144 1.043568,2.63501 1.069658,1.04357 2.582833,1.04357 z"
         style="font-style:normal;font-variant:normal;font-weight:normal;font-stretch:normal;font-size:26.08922005px;font-family:'Poiret One';-inkscape-font-specification:'Poiret One, Normal';font-variant-ligatures:normal;font-variant-caps:normal;font-variant-numeric:normal;font-feature-settings:normal;text-align:center;writing-mode:lr-tb;text-anchor:middle;fill:#3c0000;fill-opacity:1;stroke:#3c0000;stroke-width:0.38699999;stroke-miterlimit:4;stroke-dasharray:none;stroke-opacity:1"
         id="path1321" />
      <path
         d="m -0.0801284,165.86611 v 0.73049 q -1.5131748,0 -2.5828328,1.04357 -1.0435688,1.04357 -1.0435688,2.63501 v 6.86147 h 3.65249082 v 0.7305 H -3.70653 v 4.48734 h -0.834855 v -12.07931 q 0,-1.9306 1.304461,-3.15679 1.304461,-1.25228 3.1567956,-1.25228 z"
         style="font-style:normal;font-variant:normal;font-weight:normal;font-stretch:normal;font-size:26.08922005px;font-family:'Poiret One';-inkscape-font-specification:'Poiret One, Normal';font-variant-ligatures:normal;font-variant-caps:normal;font-variant-numeric:normal;font-feature-settings:normal;text-align:center;writing-mode:lr-tb;text-anchor:middle;fill:#3c0000;fill-opacity:1;stroke:#3c0000;stroke-width:0.38699999;stroke-miterlimit:4;stroke-dasharray:none;stroke-opacity:1"
         id="path1323" />
      <path
         d="m 7.4845194,182.64147 q -2.5045651,0 -4.3047213,-1.85233 -1.8001562,-1.87842 -1.8001562,-4.3569 0,-2.47848 1.8262454,-4.27863 1.8262454,-1.82625 4.382989,-1.82625 2.5828327,0 4.3829887,1.82625 1.826246,1.80015 1.826246,4.30472 0,2.47847 -1.774067,4.33081 -1.774067,1.85233 -4.3047216,1.85233 z m 5.4787366,-6.13096 q 0,-2.21759 -1.591443,-3.83512 -1.565353,-1.61753 -3.7568475,-1.61753 -2.1914945,0 -3.8090261,1.64362 -1.5914424,1.61753 -1.5914424,3.80903 0,2.19149 1.5914424,3.80902 1.6175316,1.59145 3.8090261,1.59145 2.2175837,0 3.7829365,-1.59145 1.565354,-1.61753 1.565354,-3.80902 z"
         style="font-style:normal;font-variant:normal;font-weight:normal;font-stretch:normal;font-size:26.08922005px;font-family:'Poiret One';-inkscape-font-specification:'Poiret One, Normal';font-variant-ligatures:normal;font-variant-caps:normal;font-variant-numeric:normal;font-feature-settings:normal;text-align:center;writing-mode:lr-tb;text-anchor:middle;fill:#3c0000;fill-opacity:1;stroke:#3c0000;stroke-width:0.38699999;stroke-miterlimit:4;stroke-dasharray:none;stroke-opacity:1"
         id="path1325" />
      <path
         d="m 23.160885,172.20579 q -1.147926,-1.14793 -2.530654,-1.14793 -1.382729,0 -2.452387,1.04357 -1.043569,1.04357 -1.043569,2.4263 v 7.82676 H 16.29942 v -11.74015 h 0.834855 v 1.74798 q 0.469606,-0.88703 1.460996,-1.461 0.991391,-0.57396 2.217584,-0.57396 1.226193,0 2.34803,0.83486 z"
         style="font-style:normal;font-variant:normal;font-weight:normal;font-stretch:normal;font-size:26.08922005px;font-family:'Poiret One';-inkscape-font-specification:'Poiret One, Normal';font-variant-ligatures:normal;font-variant-caps:normal;font-variant-numeric:normal;font-feature-settings:normal;text-align:center;writing-mode:lr-tb;text-anchor:middle;fill:#3c0000;fill-opacity:1;stroke:#3c0000;stroke-width:0.38699999;stroke-miterlimit:4;stroke-dasharray:none;stroke-opacity:1"
         id="path1327" />
      <path
         d="m 38.690901,181.78053 v 0.7305 q -1.852335,0 -3.156796,-1.2262 -1.304461,-1.25228 -1.304461,-3.18288 v -12.20976 h 0.834855 v 4.74824 h 3.600313 v 0.7305 h -3.600313 v 6.73102 q 0,1.59144 1.043569,2.63501 1.069658,1.04357 2.582833,1.04357 z"
         style="font-style:normal;font-variant:normal;font-weight:normal;font-stretch:normal;font-size:26.08922005px;font-family:'Poiret One';-inkscape-font-specification:'Poiret One, Normal';font-variant-ligatures:normal;font-variant-caps:normal;font-variant-numeric:normal;font-feature-settings:normal;text-align:center;writing-mode:lr-tb;text-anchor:middle;fill:#3c0000;fill-opacity:1;stroke:#3c0000;stroke-width:0.38699999;stroke-miterlimit:4;stroke-dasharray:none;stroke-opacity:1"
         id="path1329" />
      <path
         d="m 41.592908,182.35449 h -0.834855 v -19.54082 h 0.834855 v 10.07044 q 1.304461,-2.55675 4.513436,-2.55675 2.191494,0 3.67858,1.51318 1.513174,1.51317 1.513174,3.67858 v 6.83537 h -0.834855 v -6.83537 q 0,-1.82625 -1.278371,-3.13071 -1.278372,-1.33055 -3.078528,-1.33055 -1.800157,0 -3.156796,1.33055 -1.35664,1.33055 -1.35664,3.13071 z"
         style="font-style:normal;font-variant:normal;font-weight:normal;font-stretch:normal;font-size:26.08922005px;font-family:'Poiret One';-inkscape-font-specification:'Poiret One, Normal';font-variant-ligatures:normal;font-variant-caps:normal;font-variant-numeric:normal;font-feature-settings:normal;text-align:center;writing-mode:lr-tb;text-anchor:middle;fill:#3c0000;fill-opacity:1;stroke:#3c0000;stroke-width:0.38699999;stroke-miterlimit:4;stroke-dasharray:none;stroke-opacity:1"
         id="path1331" />
      <path
         d="m 60.029434,182.66756 h -0.234803 q -2.478476,0 -4.33081,-1.85233 -1.826246,-1.87843 -1.826246,-4.3569 0,-2.47848 1.826246,-4.27863 1.826245,-1.82625 4.513435,-1.82625 2.687189,0 4.617792,2.13932 l -8.192015,8.08766 q 1.695799,1.35663 3.261152,1.35663 1.565353,0 2.791547,-0.7044 1.252282,-0.7305 2.061048,-1.93061 v 1.33055 q -1.852335,2.03496 -4.487346,2.03496 z m -0.286981,-11.58361 q -2.061049,0 -3.67858,1.61753 -1.591443,1.59144 -1.591443,3.67858 0,2.08714 1.382729,3.65249 l 7.591963,-7.53978 q -1.617532,-1.40882 -3.704669,-1.40882 z"
         style="font-style:normal;font-variant:normal;font-weight:normal;font-stretch:normal;font-size:26.08922005px;font-family:'Poiret One';-inkscape-font-specification:'Poiret One, Normal';font-variant-ligatures:normal;font-variant-caps:normal;font-variant-numeric:normal;font-feature-settings:normal;text-align:center;writing-mode:lr-tb;text-anchor:middle;fill:#3c0000;fill-opacity:1;stroke:#3c0000;stroke-width:0.38699999;stroke-miterlimit:4;stroke-dasharray:none;stroke-opacity:1"
         id="path1333" />
      <path
         d="m 81.859596,182.69365 h -0.234803 q -2.504565,0 -4.304721,-1.85233 -1.800156,-1.85234 -1.800156,-4.33081 0,-2.50457 1.826245,-4.30472 1.826246,-1.82625 4.487346,-1.82625 2.661101,0 4.539524,2.00887 v 1.33055 q -0.808765,-1.2001 -2.061048,-1.90451 -1.226193,-0.70441 -2.582833,-0.70441 -2.165405,0 -3.782937,1.61753 -1.591442,1.59144 -1.591442,3.80903 0,2.21758 1.591442,3.83511 1.617532,1.59144 3.782937,1.59144 1.35664,0 2.582833,-0.70441 1.252283,-0.7044 2.061048,-1.9306 v 1.35664 q -1.826245,2.00887 -4.513435,2.00887 z"
         style="font-style:normal;font-variant:normal;font-weight:normal;font-stretch:normal;font-size:26.08922005px;font-family:'Poiret One';-inkscape-font-specification:'Poiret One, Normal';font-variant-ligatures:normal;font-variant-caps:normal;font-variant-numeric:normal;font-feature-settings:normal;text-align:center;writing-mode:lr-tb;text-anchor:middle;fill:#3c0000;fill-opacity:1;stroke:#3c0000;stroke-width:0.38699999;stroke-miterlimit:4;stroke-dasharray:none;stroke-opacity:1"
         id="path1335" />
      <path
         d="m 94.475357,182.66756 h -0.234803 q -2.478476,0 -4.330811,-1.85233 -1.826245,-1.87843 -1.826245,-4.3569 0,-2.47848 1.826245,-4.27863 1.826246,-1.82625 4.513436,-1.82625 2.687189,0 4.617791,2.13932 l -8.192015,8.08766 q 1.6958,1.35663 3.261153,1.35663 1.565353,0 2.791546,-0.7044 1.252283,-0.7305 2.061049,-1.93061 v 1.33055 q -1.852335,2.03496 -4.487346,2.03496 z m -0.286981,-11.58361 q -2.061049,0 -3.67858,1.61753 -1.591443,1.59144 -1.591443,3.67858 0,2.08714 1.382729,3.65249 l 7.591963,-7.53978 q -1.617532,-1.40882 -3.704669,-1.40882 z"
         style="font-style:normal;font-variant:normal;font-weight:normal;font-stretch:normal;font-size:26.08922005px;font-family:'Poiret One';-inkscape-font-specification:'Poiret One, Normal';font-variant-ligatures:normal;font-variant-caps:normal;font-variant-numeric:normal;font-feature-settings:normal;text-align:center;writing-mode:lr-tb;text-anchor:middle;fill:#3c0000;fill-opacity:1;stroke:#3c0000;stroke-width:0.38699999;stroke-miterlimit:4;stroke-dasharray:none;stroke-opacity:1"
         id="path1337" />
      <path
         d="m 102.33189,182.35449 h -0.83485 v -11.74015 h 0.83485 v 2.37412 q 1.33055,-2.6611 4.53953,-2.6611 2.19149,0 3.67858,1.51318 1.48708,1.51317 1.48708,3.67858 v 6.83537 h -0.83485 v -6.83537 q 0,-1.80016 -1.27838,-3.13071 -1.25228,-1.33055 -3.05243,-1.33055 -1.80016,0 -3.18289,1.33055 -1.35664,1.33055 -1.35664,3.13071 z"
         style="font-style:normal;font-variant:normal;font-weight:normal;font-stretch:normal;font-size:26.08922005px;font-family:'Poiret One';-inkscape-font-specification:'Poiret One, Normal';font-variant-ligatures:normal;font-variant-caps:normal;font-variant-numeric:normal;font-feature-settings:normal;text-align:center;writing-mode:lr-tb;text-anchor:middle;fill:#3c0000;fill-opacity:1;stroke:#3c0000;stroke-width:0.38699999;stroke-miterlimit:4;stroke-dasharray:none;stroke-opacity:1"
         id="path1339" />
      <path
         d="m 119.35347,181.78053 v 0.7305 q -1.85234,0 -3.1568,-1.2262 -1.30446,-1.25228 -1.30446,-3.18288 v -12.20976 h 0.83486 v 4.74824 h 3.60031 v 0.7305 h -3.60031 v 6.73102 q 0,1.59144 1.04357,2.63501 1.06965,1.04357 2.58283,1.04357 z"
         style="font-style:normal;font-variant:normal;font-weight:normal;font-stretch:normal;font-size:26.08922005px;font-family:'Poiret One';-inkscape-font-specification:'Poiret One, Normal';font-variant-ligatures:normal;font-variant-caps:normal;font-variant-numeric:normal;font-feature-settings:normal;text-align:center;writing-mode:lr-tb;text-anchor:middle;fill:#3c0000;fill-opacity:1;stroke:#3c0000;stroke-width:0.38699999;stroke-miterlimit:4;stroke-dasharray:none;stroke-opacity:1"
         id="path1341" />
      <path
         d="m 127.2907,182.66756 h -0.23481 q -2.47847,0 -4.33081,-1.85233 -1.82624,-1.87843 -1.82624,-4.3569 0,-2.47848 1.82624,-4.27863 1.82625,-1.82625 4.51344,-1.82625 2.68719,0 4.61779,2.13932 l -8.19202,8.08766 q 1.6958,1.35663 3.26116,1.35663 1.56535,0 2.79154,-0.7044 1.25229,-0.7305 2.06105,-1.93061 v 1.33055 q -1.85233,2.03496 -4.48734,2.03496 z m -0.28699,-11.58361 q -2.06104,0 -3.67858,1.61753 -1.59144,1.59144 -1.59144,3.67858 0,2.08714 1.38273,3.65249 l 7.59196,-7.53978 q -1.61753,-1.40882 -3.70467,-1.40882 z"
         style="font-style:normal;font-variant:normal;font-weight:normal;font-stretch:normal;font-size:26.08922005px;font-family:'Poiret One';-inkscape-font-specification:'Poiret One, Normal';font-variant-ligatures:normal;font-variant-caps:normal;font-variant-numeric:normal;font-feature-settings:normal;text-align:center;writing-mode:lr-tb;text-anchor:middle;fill:#3c0000;fill-opacity:1;stroke:#3c0000;stroke-width:0.38699999;stroke-miterlimit:4;stroke-dasharray:none;stroke-opacity:1"
         id="path1343" />
      <path
         d="m 135.14723,182.35449 h -0.83486 v -11.74015 h 0.83486 v 2.37412 q 1.33055,-2.6611 4.53952,-2.6611 2.1915,0 3.67858,1.51318 1.48709,1.51317 1.48709,3.67858 v 6.83537 h -0.83486 v -6.83537 q 0,-1.80016 -1.27837,-3.13071 -1.25228,-1.33055 -3.05244,-1.33055 -1.80015,0 -3.18288,1.33055 -1.35664,1.33055 -1.35664,3.13071 z"
         style="font-style:normal;font-variant:normal;font-weight:normal;font-stretch:normal;font-size:26.08922005px;font-family:'Poiret One';-inkscape-font-specification:'Poiret One, Normal';font-variant-ligatures:normal;font-variant-caps:normal;font-variant-numeric:normal;font-feature-settings:normal;text-align:center;writing-mode:lr-tb;text-anchor:middle;fill:#3c0000;fill-opacity:1;stroke:#3c0000;stroke-width:0.38699999;stroke-miterlimit:4;stroke-dasharray:none;stroke-opacity:1"
         id="path1345" />
      <path
         d="m 159.6825,170.61434 v 11.74015 h -0.83485 v -2.92199 q -0.7305,1.48709 -2.1915,2.34803 -1.46099,0.86094 -3.1307,0.86094 -2.55675,0 -4.38299,-1.80015 -1.82625,-1.82625 -1.82625,-4.3569 0,-2.53066 1.82625,-4.33081 1.82624,-1.82625 4.38299,-1.82625 1.66971,0 3.18288,0.88704 1.53926,0.88703 2.13932,2.34803 v -2.94809 z m -11.53143,5.89617 q 0,2.19149 1.59144,3.80902 1.61753,1.59145 3.80902,1.59145 2.21759,0 3.78294,-1.59145 1.56535,-1.61753 1.56535,-3.80902 0,-2.21759 -1.59144,-3.83512 -1.56535,-1.61753 -3.75685,-1.61753 -2.19149,0 -3.80902,1.64362 -1.59144,1.61753 -1.59144,3.80903 z"
         style="font-style:normal;font-variant:normal;font-weight:normal;font-stretch:normal;font-size:26.08922005px;font-family:'Poiret One';-inkscape-font-specification:'Poiret One, Normal';font-variant-ligatures:normal;font-variant-caps:normal;font-variant-numeric:normal;font-feature-settings:normal;text-align:center;writing-mode:lr-tb;text-anchor:middle;fill:#3c0000;fill-opacity:1;stroke:#3c0000;stroke-width:0.38699999;stroke-miterlimit:4;stroke-dasharray:none;stroke-opacity:1"
         id="path1347" />
      <path
         d="m 169.65797,172.20579 q -1.14793,-1.14793 -2.53065,-1.14793 -1.38273,0 -2.45239,1.04357 -1.04357,1.04357 -1.04357,2.4263 v 7.82676 h -0.83485 v -11.74015 h 0.83485 v 1.74798 q 0.46961,-0.88703 1.461,-1.461 0.99139,-0.57396 2.21758,-0.57396 1.22619,0 2.34803,0.83486 z"
         style="font-style:normal;font-variant:normal;font-weight:normal;font-stretch:normal;font-size:26.08922005px;font-family:'Poiret One';-inkscape-font-specification:'Poiret One, Normal';font-variant-ligatures:normal;font-variant-caps:normal;font-variant-numeric:normal;font-feature-settings:normal;text-align:center;writing-mode:lr-tb;text-anchor:middle;fill:#3c0000;fill-opacity:1;stroke:#3c0000;stroke-width:0.38699999;stroke-miterlimit:4;stroke-dasharray:none;stroke-opacity:1"
         id="path1349" />
      <path
         d="m 181.31087,170.61434 h 0.83486 v 11.3749 q 0,2.32194 -1.61753,3.93948 -1.61754,1.61753 -3.96557,1.61753 -2.81763,0 -4.46125,-2.16541 l 0.0522,-1.30446 q 0.73049,1.25228 1.90451,1.98278 1.2001,0.75659 2.50456,0.75659 1.93061,0 3.33942,-1.40882 1.40882,-1.38273 1.40882,-3.33942 v -1.98278 q -1.27837,2.55674 -4.46126,2.55674 -2.1654,0 -3.70466,-1.51317 -1.53927,-1.53927 -1.53927,-3.67858 v -6.83538 h 0.83486 v 6.83538 q 0,1.80016 1.30446,3.13071 1.33055,1.33055 3.1307,1.33055 1.80016,0 3.10462,-1.33055 1.33055,-1.33055 1.33055,-3.13071 z"
         style="font-style:normal;font-variant:normal;font-weight:normal;font-stretch:normal;font-size:26.08922005px;font-family:'Poiret One';-inkscape-font-specification:'Poiret One, Normal';font-variant-ligatures:normal;font-variant-caps:normal;font-variant-numeric:normal;font-feature-settings:normal;text-align:center;writing-mode:lr-tb;text-anchor:middle;fill:#3c0000;fill-opacity:1;stroke:#3c0000;stroke-width:0.38699999;stroke-miterlimit:4;stroke-dasharray:none;stroke-opacity:1"
         id="path1351" />
      <path
         d="m 199.5868,182.64147 q -2.50457,0 -4.30472,-1.85233 -1.80016,-1.87842 -1.80016,-4.3569 0,-2.47848 1.82625,-4.27863 1.82624,-1.82625 4.38299,-1.82625 2.58283,0 4.38298,1.82625 1.82625,1.80015 1.82625,4.30472 0,2.47847 -1.77407,4.33081 -1.77406,1.85233 -4.30472,1.85233 z m 5.47874,-6.13096 q 0,-2.21759 -1.59145,-3.83512 -1.56535,-1.61753 -3.75684,-1.61753 -2.1915,0 -3.80903,1.64362 -1.59144,1.61753 -1.59144,3.80903 0,2.19149 1.59144,3.80902 1.61753,1.59145 3.80903,1.59145 2.21758,0 3.78293,-1.59145 1.56536,-1.61753 1.56536,-3.80902 z"
         style="font-style:normal;font-variant:normal;font-weight:normal;font-stretch:normal;font-size:26.08922005px;font-family:'Poiret One';-inkscape-font-specification:'Poiret One, Normal';font-variant-ligatures:normal;font-variant-caps:normal;font-variant-numeric:normal;font-feature-settings:normal;text-align:center;writing-mode:lr-tb;text-anchor:middle;fill:#3c0000;fill-opacity:1;stroke:#3c0000;stroke-width:0.38699999;stroke-miterlimit:4;stroke-dasharray:none;stroke-opacity:1"
         id="path1353" />
      <path
         d="m 212.86293,165.86611 v 0.73049 q -1.51318,0 -2.58284,1.04357 -1.04357,1.04357 -1.04357,2.63501 v 6.86147 h 3.6525 v 0.7305 h -3.6525 v 4.48734 h -0.83485 v -12.07931 q 0,-1.9306 1.30446,-3.15679 1.30446,-1.25228 3.1568,-1.25228 z"
         style="font-style:normal;font-variant:normal;font-weight:normal;font-stretch:normal;font-size:26.08922005px;font-family:'Poiret One';-inkscape-font-specification:'Poiret One, Normal';font-variant-ligatures:normal;font-variant-caps:normal;font-variant-numeric:normal;font-feature-settings:normal;text-align:center;writing-mode:lr-tb;text-anchor:middle;fill:#3c0000;fill-opacity:1;stroke:#3c0000;stroke-width:0.38699999;stroke-miterlimit:4;stroke-dasharray:none;stroke-opacity:1"
         id="path1355" />
      <path
         d="m 228.29634,181.78053 v 0.7305 q -1.85234,0 -3.1568,-1.2262 -1.30446,-1.25228 -1.30446,-3.18288 v -12.20976 h 0.83486 v 4.74824 h 3.60031 v 0.7305 h -3.60031 v 6.73102 q 0,1.59144 1.04357,2.63501 1.06965,1.04357 2.58283,1.04357 z"
         style="font-style:normal;font-variant:normal;font-weight:normal;font-stretch:normal;font-size:26.08922005px;font-family:'Poiret One';-inkscape-font-specification:'Poiret One, Normal';font-variant-ligatures:normal;font-variant-caps:normal;font-variant-numeric:normal;font-feature-settings:normal;text-align:center;writing-mode:lr-tb;text-anchor:middle;fill:#3c0000;fill-opacity:1;stroke:#3c0000;stroke-width:0.38699999;stroke-miterlimit:4;stroke-dasharray:none;stroke-opacity:1"
         id="path1357" />
      <path
         d="m 231.19835,182.35449 h -0.83486 v -19.54082 h 0.83486 v 10.07044 q 1.30446,-2.55675 4.51343,-2.55675 2.1915,0 3.67858,1.51318 1.51318,1.51317 1.51318,3.67858 v 6.83537 h -0.83486 v -6.83537 q 0,-1.82625 -1.27837,-3.13071 -1.27837,-1.33055 -3.07853,-1.33055 -1.80015,0 -3.15679,1.33055 -1.35664,1.33055 -1.35664,3.13071 z"
         style="font-style:normal;font-variant:normal;font-weight:normal;font-stretch:normal;font-size:26.08922005px;font-family:'Poiret One';-inkscape-font-specification:'Poiret One, Normal';font-variant-ligatures:normal;font-variant-caps:normal;font-variant-numeric:normal;font-feature-settings:normal;text-align:center;writing-mode:lr-tb;text-anchor:middle;fill:#3c0000;fill-opacity:1;stroke:#3c0000;stroke-width:0.38699999;stroke-miterlimit:4;stroke-dasharray:none;stroke-opacity:1"
         id="path1359" />
      <path
         d="m 249.63487,182.66756 h -0.2348 q -2.47848,0 -4.33081,-1.85233 -1.82625,-1.87843 -1.82625,-4.3569 0,-2.47848 1.82625,-4.27863 1.82624,-1.82625 4.51343,-1.82625 2.68719,0 4.6178,2.13932 l -8.19202,8.08766 q 1.6958,1.35663 3.26115,1.35663 1.56536,0 2.79155,-0.7044 1.25228,-0.7305 2.06105,-1.93061 v 1.33055 q -1.85234,2.03496 -4.48735,2.03496 z m -0.28698,-11.58361 q -2.06105,0 -3.67858,1.61753 -1.59144,1.59144 -1.59144,3.67858 0,2.08714 1.38273,3.65249 l 7.59196,-7.53978 q -1.61753,-1.40882 -3.70467,-1.40882 z"
         style="font-style:normal;font-variant:normal;font-weight:normal;font-stretch:normal;font-size:26.08922005px;font-family:'Poiret One';-inkscape-font-specification:'Poiret One, Normal';font-variant-ligatures:normal;font-variant-caps:normal;font-variant-numeric:normal;font-feature-settings:normal;text-align:center;writing-mode:lr-tb;text-anchor:middle;fill:#3c0000;fill-opacity:1;stroke:#3c0000;stroke-width:0.38699999;stroke-miterlimit:4;stroke-dasharray:none;stroke-opacity:1"
         id="path1361" />
      <path
         d="m 266.16892,162.78758 h 6.96582 v 0.75658 h -6.10487 v 10.59223 h 5.0874 v 0.75659 h -5.0874 v 7.46151 h -0.86095 z"
         style="font-style:normal;font-variant:normal;font-weight:normal;font-stretch:normal;font-size:26.08922005px;font-family:'Poiret One';-inkscape-font-specification:'Poiret One, Normal';font-variant-ligatures:normal;font-variant-caps:normal;font-variant-numeric:normal;font-feature-settings:normal;text-align:center;writing-mode:lr-tb;text-anchor:middle;fill:#3c0000;fill-opacity:1;stroke:#3c0000;stroke-width:0.38699999;stroke-miterlimit:4;stroke-dasharray:none;stroke-opacity:1"
         id="path1363" />
      <path
         d="m 276.53122,170.64043 v 11.71406 h -0.83486 v -11.71406 z m -0.41743,-2.86981 q -0.75658,0 -0.75658,-0.70441 0,-0.70441 0.75658,-0.70441 0.75659,0 0.75659,0.70441 0,0.70441 -0.75659,0.70441 z"
         style="font-style:normal;font-variant:normal;font-weight:normal;font-stretch:normal;font-size:26.08922005px;font-family:'Poiret One';-inkscape-font-specification:'Poiret One, Normal';font-variant-ligatures:normal;font-variant-caps:normal;font-variant-numeric:normal;font-feature-settings:normal;text-align:center;writing-mode:lr-tb;text-anchor:middle;fill:#3c0000;fill-opacity:1;stroke:#3c0000;stroke-width:0.38699999;stroke-miterlimit:4;stroke-dasharray:none;stroke-opacity:1"
         id="path1365" />
      <path
         d="m 286.85563,172.20579 q -1.14792,-1.14793 -2.53065,-1.14793 -1.38273,0 -2.45239,1.04357 -1.04357,1.04357 -1.04357,2.4263 v 7.82676 h -0.83485 v -11.74015 h 0.83485 v 1.74798 q 0.46961,-0.88703 1.461,-1.461 0.99139,-0.57396 2.21758,-0.57396 1.2262,0 2.34803,0.83486 z"
         style="font-style:normal;font-variant:normal;font-weight:normal;font-stretch:normal;font-size:26.08922005px;font-family:'Poiret One';-inkscape-font-specification:'Poiret One, Normal';font-variant-ligatures:normal;font-variant-caps:normal;font-variant-numeric:normal;font-feature-settings:normal;text-align:center;writing-mode:lr-tb;text-anchor:middle;fill:#3c0000;fill-opacity:1;stroke:#3c0000;stroke-width:0.38699999;stroke-miterlimit:4;stroke-dasharray:none;stroke-opacity:1"
         id="path1367" />
      <path
         d="m 291.62098,171.03177 q -0.67832,0 -1.2001,0.44352 -0.52179,0.44351 -0.52179,1.09574 0,0.65224 0.57396,1.20011 0.60006,0.54787 1.40882,1.01748 0.83486,0.44352 1.66971,0.9653 0.83486,0.52178 1.40882,1.33055 0.60005,0.80877 0.60005,1.85233 0,1.53927 -1.17401,2.63502 -1.14793,1.06965 -2.79155,1.06965 -1.04357,0 -1.95669,-0.44351 -0.88703,-0.46961 -1.30446,-1.2262 v -1.25228 q 0.99139,2.1915 3.18288,2.1915 1.35664,0 2.26977,-0.83486 0.93921,-0.83485 0.93921,-1.85233 0,-1.04357 -0.60006,-1.74798 -0.57396,-0.70441 -1.40881,-1.20011 -0.83486,-0.49569 -1.66971,-0.9653 -0.80877,-0.49569 -1.40882,-1.17401 -0.57396,-0.70441 -0.57396,-1.61753 0,-0.93922 0.73049,-1.56536 0.75659,-0.65223 1.93061,-0.65223 1.17401,0 2.00887,0.91313 v 1.06965 q -0.83486,-1.25228 -2.11323,-1.25228 z"
         style="font-style:normal;font-variant:normal;font-weight:normal;font-stretch:normal;font-size:26.08922005px;font-family:'Poiret One';-inkscape-font-specification:'Poiret One, Normal';font-variant-ligatures:normal;font-variant-caps:normal;font-variant-numeric:normal;font-feature-settings:normal;text-align:center;writing-mode:lr-tb;text-anchor:middle;fill:#3c0000;fill-opacity:1;stroke:#3c0000;stroke-width:0.38699999;stroke-miterlimit:4;stroke-dasharray:none;stroke-opacity:1"
         id="path1369" />
      <path
         d="m 302.23277,181.78053 v 0.7305 q -1.85233,0 -3.15679,-1.2262 -1.30447,-1.25228 -1.30447,-3.18288 v -12.20976 h 0.83486 v 4.74824 h 3.60031 v 0.7305 h -3.60031 v 6.73102 q 0,1.59144 1.04357,2.63501 1.06966,1.04357 2.58283,1.04357 z"
         style="font-style:normal;font-variant:normal;font-weight:normal;font-stretch:normal;font-size:26.08922005px;font-family:'Poiret One';-inkscape-font-specification:'Poiret One, Normal';font-variant-ligatures:normal;font-variant-caps:normal;font-variant-numeric:normal;font-feature-settings:normal;text-align:center;writing-mode:lr-tb;text-anchor:middle;fill:#3c0000;fill-opacity:1;stroke:#3c0000;stroke-width:0.38699999;stroke-miterlimit:4;stroke-dasharray:none;stroke-opacity:1"
         id="path1371" />
      <path
         d="m 320.96077,182.69365 -8.58335,-19.90607 h 0.9653 l 7.7485,17.92329 3.6264,-8.479 -4.04383,-9.44429 h 0.93921 l 3.6264,8.58335 3.73076,-8.58335 h 0.7305 l -4.06992,9.41821 3.70467,8.58335 7.90503,-18.00156 h 0.70441 l -8.68771,19.90607 -4.14818,-9.54865 z"
         style="font-style:normal;font-variant:normal;font-weight:normal;font-stretch:normal;font-size:26.08922005px;font-family:'Poiret One';-inkscape-font-specification:'Poiret One, Normal';font-variant-ligatures:normal;font-variant-caps:normal;font-variant-numeric:normal;font-feature-settings:normal;text-align:center;writing-mode:lr-tb;text-anchor:middle;fill:#3c0000;fill-opacity:1;stroke:#3c0000;stroke-width:0.38699999;stroke-miterlimit:4;stroke-dasharray:none;stroke-opacity:1"
         id="path1373" />
      <path
         d="m 342.51701,182.64147 q -2.50457,0 -4.30473,-1.85233 -1.80015,-1.87842 -1.80015,-4.3569 0,-2.47848 1.82624,-4.27863 1.82625,-1.82625 4.38299,-1.82625 2.58284,0 4.38299,1.82625 1.82625,1.80015 1.82625,4.30472 0,2.47847 -1.77407,4.33081 -1.77407,1.85233 -4.30472,1.85233 z m 5.47873,-6.13096 q 0,-2.21759 -1.59144,-3.83512 -1.56535,-1.61753 -3.75685,-1.61753 -2.19149,0 -3.80902,1.64362 -1.59145,1.61753 -1.59145,3.80903 0,2.19149 1.59145,3.80902 1.61753,1.59145 3.80902,1.59145 2.21759,0 3.78294,-1.59145 1.56535,-1.61753 1.56535,-3.80902 z"
         style="font-style:normal;font-variant:normal;font-weight:normal;font-stretch:normal;font-size:26.08922005px;font-family:'Poiret One';-inkscape-font-specification:'Poiret One, Normal';font-variant-ligatures:normal;font-variant-caps:normal;font-variant-numeric:normal;font-feature-settings:normal;text-align:center;writing-mode:lr-tb;text-anchor:middle;fill:#3c0000;fill-opacity:1;stroke:#3c0000;stroke-width:0.38699999;stroke-miterlimit:4;stroke-dasharray:none;stroke-opacity:1"
         id="path1375" />
      <path
         d="m 358.19334,172.20579 q -1.14793,-1.14793 -2.53065,-1.14793 -1.38273,0 -2.45239,1.04357 -1.04357,1.04357 -1.04357,2.4263 v 7.82676 h -0.83485 v -11.74015 h 0.83485 v 1.74798 q 0.46961,-0.88703 1.461,-1.461 0.99139,-0.57396 2.21758,-0.57396 1.22619,0 2.34803,0.83486 z"
         style="font-style:normal;font-variant:normal;font-weight:normal;font-stretch:normal;font-size:26.08922005px;font-family:'Poiret One';-inkscape-font-specification:'Poiret One, Normal';font-variant-ligatures:normal;font-variant-caps:normal;font-variant-numeric:normal;font-feature-settings:normal;text-align:center;writing-mode:lr-tb;text-anchor:middle;fill:#3c0000;fill-opacity:1;stroke:#3c0000;stroke-width:0.38699999;stroke-miterlimit:4;stroke-dasharray:none;stroke-opacity:1"
         id="path1377" />
      <path
         d="m 364.8632,181.8588 v 0.7305 q -1.85233,0 -3.1568,-1.2262 -1.30446,-1.25228 -1.30446,-3.18288 v -15.39264 h 0.83486 v 15.39264 q 0,1.59144 1.04357,2.63501 1.06966,1.04357 2.58283,1.04357 z"
         style="font-style:normal;font-variant:normal;font-weight:normal;font-stretch:normal;font-size:26.08922005px;font-family:'Poiret One';-inkscape-font-specification:'Poiret One, Normal';font-variant-ligatures:normal;font-variant-caps:normal;font-variant-numeric:normal;font-feature-settings:normal;text-align:center;writing-mode:lr-tb;text-anchor:middle;fill:#3c0000;fill-opacity:1;stroke:#3c0000;stroke-width:0.38699999;stroke-miterlimit:4;stroke-dasharray:none;stroke-opacity:1"
         id="path1379" />
      <path
         d="m 377.67014,162.78758 v 19.56691 h -0.83485 v -2.84372 q -0.78268,1.4349 -2.26977,2.29585 -1.48708,0.83485 -3.05243,0.83485 -2.58284,0 -4.40908,-1.80015 -1.80016,-1.82625 -1.80016,-4.3569 0,-2.53066 1.80016,-4.33081 1.82624,-1.82625 4.40908,-1.82625 1.61753,0 3.10461,0.86095 1.51318,0.86094 2.21759,2.29585 v -10.69658 z m -11.53143,13.72293 q 0,2.19149 1.56535,3.80902 1.56535,1.59145 3.75685,1.59145 2.21758,0 3.80902,-1.59145 1.61754,-1.61753 1.61754,-3.80902 0,-2.1915 -1.61754,-3.80903 -1.59144,-1.64362 -3.78293,-1.64362 -2.1915,0 -3.78294,1.61753 -1.56535,1.61753 -1.56535,3.83512 z"
         style="font-style:normal;font-variant:normal;font-weight:normal;font-stretch:normal;font-size:26.08922005px;font-family:'Poiret One';-inkscape-font-specification:'Poiret One, Normal';font-variant-ligatures:normal;font-variant-caps:normal;font-variant-numeric:normal;font-feature-settings:normal;text-align:center;writing-mode:lr-tb;text-anchor:middle;fill:#3c0000;fill-opacity:1;stroke:#3c0000;stroke-width:0.38699999;stroke-miterlimit:4;stroke-dasharray:none;stroke-opacity:1"
         id="path1381" />
      <path
         d="m 397.44496,182.69365 -8.58335,-19.90607 h 0.9653 l 7.7485,17.92329 3.6264,-8.479 -4.04383,-9.44429 h 0.93921 l 3.62641,8.58335 3.73075,-8.58335 h 0.7305 l -4.06992,9.41821 3.70467,8.58335 7.90504,-18.00156 h 0.70441 l -8.68771,19.90607 -4.14819,-9.54865 z"
         style="font-style:normal;font-variant:normal;font-weight:normal;font-stretch:normal;font-size:26.08922005px;font-family:'Poiret One';-inkscape-font-specification:'Poiret One, Normal';font-variant-ligatures:normal;font-variant-caps:normal;font-variant-numeric:normal;font-feature-settings:normal;text-align:center;writing-mode:lr-tb;text-anchor:middle;fill:#3c0000;fill-opacity:1;stroke:#3c0000;stroke-width:0.38699999;stroke-miterlimit:4;stroke-dasharray:none;stroke-opacity:1"
         id="path1383" />
      <path
         d="m 425.26261,170.61434 v 11.74015 h -0.83485 v -2.92199 q -0.7305,1.48709 -2.1915,2.34803 -1.461,0.86094 -3.13071,0.86094 -2.55674,0 -4.38298,-1.80015 -1.82625,-1.82625 -1.82625,-4.3569 0,-2.53066 1.82625,-4.33081 1.82624,-1.82625 4.38298,-1.82625 1.66971,0 3.18289,0.88704 1.53926,0.88703 2.13932,2.34803 v -2.94809 z m -11.53144,5.89617 q 0,2.19149 1.59145,3.80902 1.61753,1.59145 3.80902,1.59145 2.21759,0 3.78294,-1.59145 1.56535,-1.61753 1.56535,-3.80902 0,-2.21759 -1.59144,-3.83512 -1.56535,-1.61753 -3.75685,-1.61753 -2.19149,0 -3.80902,1.64362 -1.59145,1.61753 -1.59145,3.80903 z"
         style="font-style:normal;font-variant:normal;font-weight:normal;font-stretch:normal;font-size:26.08922005px;font-family:'Poiret One';-inkscape-font-specification:'Poiret One, Normal';font-variant-ligatures:normal;font-variant-caps:normal;font-variant-numeric:normal;font-feature-settings:normal;text-align:center;writing-mode:lr-tb;text-anchor:middle;fill:#3c0000;fill-opacity:1;stroke:#3c0000;stroke-width:0.38699999;stroke-miterlimit:4;stroke-dasharray:none;stroke-opacity:1"
         id="path1385" />
      <path
         d="m 435.23808,172.20579 q -1.14793,-1.14793 -2.53066,-1.14793 -1.38272,0 -2.45238,1.04357 -1.04357,1.04357 -1.04357,2.4263 v 7.82676 h -0.83486 v -11.74015 h 0.83486 v 1.74798 q 0.46961,-0.88703 1.461,-1.461 0.99139,-0.57396 2.21758,-0.57396 1.22619,0 2.34803,0.83486 z"
         style="font-style:normal;font-variant:normal;font-weight:normal;font-stretch:normal;font-size:26.08922005px;font-family:'Poiret One';-inkscape-font-specification:'Poiret One, Normal';font-variant-ligatures:normal;font-variant-caps:normal;font-variant-numeric:normal;font-feature-settings:normal;text-align:center;writing-mode:lr-tb;text-anchor:middle;fill:#3c0000;fill-opacity:1;stroke:#3c0000;stroke-width:0.38699999;stroke-miterlimit:4;stroke-dasharray:none;stroke-opacity:1"
         id="path1387" />
    </g>
  </g>
</svg>
